<svg display="none" xmlns="http://www.w3.org/2000/svg">
    <symbol id="menu" viewBox="0 0 24 18">
        <g>
            <rect width="24" height="2" rx="1" />
            <rect y="8" width="24" height="2" rx="1" />
            <rect y="16" width="24" height="2" rx="1" />
        </g>
    </symbol>
    <symbol id="logo" viewBox="0 0 244 52">
        <g>
            <path
                d="M46.3856 13.0508C41.5539 13.0508 37.7852 17.3354 37.7852 22.6912C37.7852 28.047 41.5056 32.3804 46.3856 32.3804C52.0387 32.3804 54.8411 27.9497 54.8411 22.6912C54.8411 17.4815 52.0387 13.0508 46.3856 13.0508Z"
                fill="#030714" />
            <path
                d="M78.3734 13.0508C72.7204 13.0508 69.918 17.4815 69.918 22.6912C69.918 27.901 72.7204 32.3804 78.3734 32.3804C83.2051 32.3804 86.9739 28.047 86.9739 22.6912C86.9739 17.3354 83.2535 13.0508 78.3734 13.0508Z"
                fill="#030714" />
            <path
                d="M150.744 13C145.96 13 141.66 16.2135 141.66 22.6404C141.66 28.97 145.912 32.3296 150.744 32.3296C155.575 32.3296 159.827 29.0674 159.827 22.6404C159.827 16.2135 155.479 13 150.744 13Z"
                fill="#030714" />
            <path
                d="M221.143 13C215.49 13 212.688 17.4307 212.688 22.6404C212.688 27.8502 215.49 32.3296 221.143 32.3296C225.975 32.3296 229.743 27.9963 229.743 22.6404C229.695 17.2846 225.975 13 221.143 13Z"
                fill="#030714" />
            <path
                d="M0 52H244V0L0 0V52ZM29.1351 13.8764H16.0896V35.6404H11.5478V9.73783H29.1835V13.8764H29.1351ZM47.1091 36.3221C42.9538 36.3221 40.0548 34.5206 38.1221 32.0375V46.2547H33.5803V9.73783H38.1221V13.3408C40.1031 10.8577 42.9538 9.10487 47.1091 9.10487C55.323 9.10487 59.6232 15.5318 59.6232 22.7378C59.6715 29.8464 55.323 36.3221 47.1091 36.3221ZM91.2225 35.6404H86.6807V32.0375C84.6997 34.5206 81.849 36.3221 77.6937 36.3221C69.4798 36.3221 65.1796 29.8464 65.1796 22.6404C65.1796 15.4831 69.5282 9.00749 77.6937 9.00749C81.849 9.00749 84.748 10.7603 86.6807 13.2434V9.73783H91.2225V35.6404ZM126.832 35.5918L123.836 19.4757L114.85 37.1498L105.766 19.7678L102.867 35.5918H98.47L104.026 7.59551L115.043 28.3858L126.011 7.59551L131.471 35.5918H126.832ZM150.749 36.3221C142.825 36.3221 136.834 30.5768 136.834 22.6891C136.834 14.8015 142.777 9.00749 150.749 9.00749C158.673 9.00749 164.664 14.8015 164.664 22.6891C164.664 30.5281 158.673 36.3221 150.749 36.3221ZM200.902 35.5918H196.36V13.7303H188.533V35.5918H183.991V13.7303H176.164V35.5918H171.622V9.68914H200.854V35.5918H200.902ZM233.951 35.5918H229.409V31.9888C227.428 34.4719 224.577 36.2734 220.422 36.2734C212.208 36.2734 207.908 29.7978 207.908 22.6404C207.908 15.4831 212.257 8.9588 220.422 8.9588C224.577 8.9588 227.476 10.7603 229.409 13.2434V9.64045H233.951V35.5918Z"
                fill="#030714" />
        </g>
    </symbol>
    <symbol id="search" viewBox="0 0 22 22">
        <g>
            <circle cx="10.5" cy="9.5" r="7.5" stroke="#303030" fill="#fff" stroke-width="2" />
            <line x1="18.4039" y1="16.8293" x2="20.8293" y2="18.7289" stroke="#303030" stroke-width="2"
                stroke-linecap="round" stroke-linejoin="round" />
        </g>
    </symbol>
    <symbol id="profile" viewBox="0 0 22 22">
        <g>
            <circle cx="10.5" cy="6.5" r="4.5" stroke="#303030" fill="#fff" stroke-width="2" />
            <path
                d="M20 20V17.4881C20 15.5617 18.4383 14 16.5119 14V14C16.1725 14 15.8348 14.0496 15.5097 14.1471L12.6454 15.0064C11.5701 15.329 10.4258 15.3434 9.34265 15.048L5.89879 14.1088C5.63411 14.0366 5.36099 14 5.08664 14V14C3.38194 14 2 15.3819 2 17.0866V20"
                stroke="#303030" stroke-width="2" stroke-linecap="round" fill="#fff" stroke-linejoin="round" />

        </g>
    </symbol>
    <symbol id="my" viewBox="0 0 24 24">
        <g>
            <circle cx="12.4291" cy="12.4291" r="10.7143" fill="white" />
            <path
                d="M0 12.0152C0 18.6548 5.34518 24 11.9848 24C18.6244 24 24 18.6548 24 12.0152C24 5.37564 18.6244 0 11.9848 0C5.34518 0 0 5.37564 0 12.0152ZM12.2132 13.4924C11.7716 14.0863 11.6193 14.7259 11.6193 15.2893C11.6193 15.8832 11.8477 16.3553 12.2132 16.3553C12.5482 16.3553 12.8832 16.0203 12.8832 15.2893C12.8832 14.7259 12.6091 14.1472 12.2132 13.4924ZM5.04061 17.6497C5.04061 17.6497 6.97462 9.36548 7.4467 7.56853C7.05076 7.2335 6.51777 6.86802 6.1066 6.86802C5.63452 6.86802 5.37563 7.14213 5.37563 7.53807C5.37563 8.01015 5.71066 8.17766 6.01523 8.17766C6.28934 8.17766 6.38071 8.11675 6.54822 8.07107L6.48731 8.34518C6.35025 8.77157 5.92386 9.2132 5.34518 9.2132C4.17259 9.2132 3.67005 8.23858 3.67005 7.3401C3.67005 6.24366 4.50761 5.17766 6.24365 5.17766C8.31472 5.17766 10.3096 7.91878 11.0102 8.81726C11.2081 9.04569 11.9848 9.98985 12.2437 10.3553C15.0457 6.35025 17.4213 5.42132 19.5533 4.94924L19.3858 7.00508C19.1117 7.06599 17.9543 7.37056 17.3909 7.84264L19.3249 17.6497H17.2538L15.6853 9.1066C14.8173 9.70051 13.6751 10.9797 13.1878 11.9086C14.0558 13.1117 14.3909 14.3147 14.3909 15.3807C14.3909 17.4213 12.9898 17.9848 12.2284 17.9848C10.8883 17.9848 10.0203 16.8883 10.0203 15.3807C10.0203 13.8426 10.7817 12.4721 11.0254 12.0152C10.6599 11.3756 9.98985 10.1421 8.86294 9.07614L6.98985 17.6497H5.04061Z"
                fill="#020203" />
        </g>
    </symbol>
    <symbol id="time" viewBox="0 0 14 14">
        <g>
            <path
                d="M6.93048 0.230469C3.35241 0.230469 0.441406 3.14637 0.441406 6.73047C0.441406 10.3146 3.35241 13.2305 6.93048 13.2305C10.5086 13.2305 13.4196 10.3146 13.4196 6.73047C13.4196 3.14637 10.5086 0.230469 6.93048 0.230469ZM6.93048 11.9305C4.06815 11.9305 1.73922 9.59762 1.73922 6.73047C1.73922 3.86332 4.06815 1.53047 6.93048 1.53047C9.79281 1.53047 12.1217 3.86332 12.1217 6.73047C12.1217 9.59762 9.79281 11.9305 6.93048 11.9305Z"
                fill="#7C858F" />
            <path d="M7.57906 3.48047H6.28125V6.99957L8.4181 9.14002L9.33566 8.22092L7.57906 6.46137V3.48047Z"
                fill="#7C858F" />
        </g>
    </symbol>
    <symbol id="arrow-up" viewBox="0 0 14 14">
        <g>
            <path d="M7 0L13.0622 10.5H0.937822L7 0Z" />
        </g>
    </symbol>
    <symbol id="arrow-down" viewBox="0 0 14 14">
        <path d="M7 11L0.937823 0.499999L13.0622 0.5L7 11Z" />
    </symbol>
    <symbol id="snail" viewBox="0 0 49 42">
        <path fill-rule="evenodd" clip-rule="evenodd"
            d="M40.7992 6.90618C40.7992 6.90618 44.7316 6.41407 47.1894 6.1875C44.7316 15.7535 38.3415 41.315 38.3415 41.315C25.5612 41.315 0 41.315 0 41.315V37.5568L20.1541 33.9409C28.0189 40.331 37.3288 29.151 33.426 21.6521C33.5291 20.5236 34.4085 20.669 34.4085 20.669L40.7992 6.90618Z"
            fill="#303030" />
        <path d="M40.3086 2.34555L42.102 7.78582H45.8545L48.0006 1.00781" stroke="#303030" stroke-width="1.9662" />
        <path fill-rule="evenodd" clip-rule="evenodd"
            d="M29.0549 40.1493C36.0964 36.9453 38.1557 28.4236 36.6044 21.4339C35.0023 14.2154 29.3477 7.35437 19.6629 7.35547C16.2076 7.35586 11.7164 8.31344 8.01973 11.0383C4.20769 13.8482 1.43359 18.407 1.43359 25.0925C1.43359 29.7892 2.94055 33.4672 5.45966 35.9796C7.95528 38.4686 11.2453 39.6129 14.4538 39.6289C20.7886 39.6605 27.499 35.1701 27.499 27C27.499 21.6855 23.3567 18.3718 19.1442 17.9417C17.0073 17.7235 14.7334 18.214 12.8139 19.5976C12.2513 20.0031 11.7335 20.4749 11.2671 21.0103L14.5666 24.9396C14.9179 24.3661 15.3257 23.9506 15.7376 23.6537C16.5697 23.054 17.596 22.8096 18.6363 22.9159C20.7783 23.1345 22.499 24.7065 22.499 27C22.499 31.8044 18.6767 34.6499 14.4788 34.629C12.4209 34.6187 10.4446 33.8896 8.99047 32.4393C7.55982 31.0125 6.43359 28.6854 6.43359 25.0925C6.43359 19.9818 8.46389 16.9225 10.9864 15.0631C13.6244 13.1186 16.9979 12.3558 19.6635 12.3555C26.4383 12.3547 30.4953 16.9851 31.7231 22.5173C33.0018 28.2784 31.0094 33.7667 26.9841 35.5983C25.7274 36.1701 25.1722 37.6525 25.744 38.9092C26.3158 40.1659 27.7982 40.7211 29.0549 40.1493Z"
            fill="#303030" />
    </symbol>
    <symbol id="arrow-right" viewBox="0 0 16 14">
        <g>
            <path fill-rule="evenodd" clip-rule="evenodd"
                d="M8.85278 13.5953C8.54991 13.3127 8.53345 12.8381 8.81601 12.5352L13.2746 7.75622L1 7.75622C0.585788 7.75622 0.250002 7.42044 0.250002 7.00622C0.250002 6.59201 0.585788 6.25622 1 6.25622L13.2746 6.25622L8.81601 1.4772C8.53345 1.17433 8.54991 0.699739 8.85278 0.417176C9.15565 0.134613 9.63024 0.151077 9.91281 0.453948L15.5484 6.4946C15.8172 6.78272 15.8172 7.22972 15.5484 7.51785L9.9128 13.5585C9.63024 13.8614 9.15565 13.8778 8.85278 13.5953Z"
                fill="#303030" />
        </g>
    </symbol>
    <symbol id="arrow-down2" viewBox="0 0 13 18">
        <g>
            <path fill-rule="evenodd" clip-rule="evenodd"
                d="M0.44505 12.4955C0.72368 12.189 1.19802 12.1664 1.50451 12.4451L6.50001 16.9864L11.4955 12.4451C11.802 12.1664 12.2763 12.189 12.555 12.4955C12.8336 12.802 12.811 13.2763 12.5045 13.555L7.00451 18.555C6.71844 18.815 6.28157 18.815 5.9955 18.555L0.495501 13.555C0.189008 13.2763 0.16642 12.802 0.44505 12.4955Z"
                fill="#303030" />
            <path fill-rule="evenodd" clip-rule="evenodd"
                d="M6.5 0.25C6.91421 0.25 7.25 0.585786 7.25 1L7.25 17C7.25 17.4142 6.91421 17.75 6.5 17.75C6.08579 17.75 5.75 17.4142 5.75 17L5.75 1C5.75 0.585786 6.08579 0.25 6.5 0.25Z"
                fill="#303030" />
        </g>
    </symbol>
    <symbol id="arrow-down2" viewBox="0 0 13 18">
        <g>
            <path fill-rule="evenodd" clip-rule="evenodd"
                d="M0.44505 12.4955C0.72368 12.189 1.19802 12.1664 1.50451 12.4451L6.50001 16.9864L11.4955 12.4451C11.802 12.1664 12.2763 12.189 12.555 12.4955C12.8336 12.802 12.811 13.2763 12.5045 13.555L7.00451 18.555C6.71844 18.815 6.28157 18.815 5.9955 18.555L0.495501 13.555C0.189008 13.2763 0.16642 12.802 0.44505 12.4955Z"
                fill="#303030" />
            <path fill-rule="evenodd" clip-rule="evenodd"
                d="M6.5 0.25C6.91421 0.25 7.25 0.585786 7.25 1L7.25 17C7.25 17.4142 6.91421 17.75 6.5 17.75C6.08579 17.75 5.75 17.4142 5.75 17L5.75 1C5.75 0.585786 6.08579 0.25 6.5 0.25Z"
                fill="#303030" />
        </g>
    </symbol>
    <symbol id="settings" viewBox="0 0 32 26">
        <g>
            <rect x="4.5" y="6.5" width="23" height="1.00001" rx="0.500004" fill="white" stroke="#303030"
                stroke-width="1.00001" />
            <circle cx="19" cy="7" r="3" fill="white" stroke="#303030" stroke-width="2" />
            <rect x="4.5" y="18.5" width="23" height="1" rx="0.5" fill="white" stroke="#303030" />
            <path
                d="M16 19C16 20.6569 14.6569 22 13 22C11.3431 22 10 20.6569 10 19C10 17.3431 11.3431 16 13 16C14.6569 16 16 17.3431 16 19Z"
                fill="white" stroke="#303030" stroke-width="2" />
        </g>
    </symbol>
    <symbol id="favourites" viewBox="0 0 15 19">
        <g>
            <path
                d="M2 1.25H1.25V2V16V17.4984L2.44949 16.6004L7.5 12.8193L12.5505 16.6004L13.75 17.4984V16V2V1.25H13H2Z"
                stroke="#303030" fill="none" stroke-width="1.5" />
        </g>
    </symbol>
    <symbol id="fb" viewBox="0 0 11 21">
        <g>
            <path
                d="M6.96857 20.0616V11.3055H9.94686L10.3886 7.89274H6.96857V5.71305C6.96857 4.72908 7.24621 4.05649 8.68487 4.05649H10.5148V0.992477C10.1993 0.955111 9.11395 0.855469 7.85196 0.855469C5.20179 0.855469 3.39715 2.44975 3.39715 5.37676V7.89274H0.406248V11.3055H3.39715V20.0616H6.96857Z"
                fill="#303030" />
        </g>
    </symbol>
    <symbol id="vk" viewBox="0 0 22 14">
        <g>
            <path
                d="M21.2748 1.79523C21.4239 1.31391 21.2747 0.960938 20.5693 0.960938H18.2323C17.6376 0.960938 17.3659 1.26629 17.2167 1.60166C17.2167 1.60166 16.0285 4.41609 14.3448 6.24097C13.8013 6.77198 13.553 6.93966 13.2567 6.93966C13.1086 6.93966 12.8933 6.77198 12.8933 6.29066V1.79523C12.8933 1.21764 12.7217 0.960938 12.2262 0.960938H8.55394C8.18309 0.960938 7.9593 1.22799 7.9593 1.48263C7.9593 2.02916 8.80118 2.15544 8.8875 3.69567V7.03696C8.8875 7.76877 8.75216 7.9023 8.45377 7.9023C7.66199 7.9023 5.73527 5.07752 4.59181 1.84388C4.36909 1.21557 4.14424 0.961973 3.54746 0.961973H1.21153C0.543364 0.961973 0.410156 1.26733 0.410156 1.6027C0.410156 2.20513 1.20194 5.18621 4.09841 9.12889C6.02939 11.8212 8.7479 13.2807 11.2245 13.2807C12.709 13.2807 12.8923 12.9567 12.8923 12.3977V10.3627C12.8923 9.71476 13.034 9.58434 13.5039 9.58434C13.8492 9.58434 14.4439 9.75409 15.8303 11.0511C17.4139 12.5892 17.676 13.2796 18.5658 13.2796H20.9018C21.5689 13.2796 21.9024 12.9556 21.7106 12.316C21.5007 11.6794 20.7441 10.753 19.7402 9.65679C19.1946 9.03159 18.3793 8.35878 18.131 8.02237C17.7847 7.58867 17.8849 7.39718 18.131 7.01212C18.1321 7.01315 20.9785 3.11912 21.2748 1.79523Z"
                fill="#303030" />
        </g>
    </symbol>
    <symbol id="twi" viewBox="0 0 18 15">
        <g>
            <path
                d="M17.8524 1.81533C17.2242 2.10211 16.5466 2.28914 15.8322 2.37642C16.559 1.94001 17.1133 1.2293 17.3843 0.406372C16.7068 0.817837 15.943 1.11708 15.1423 1.26671C14.5018 0.568465 13.5779 0.144531 12.5677 0.144531C10.6214 0.144531 9.04462 1.74052 9.04462 3.71056C9.04462 3.98487 9.08157 4.25918 9.13085 4.52102C6.19902 4.3714 3.5998 2.94997 1.86287 0.792901C1.55491 1.31658 1.38244 1.92755 1.38244 2.58838C1.38244 3.82278 2.0107 4.92002 2.94692 5.55592C2.36794 5.54345 1.82592 5.38136 1.3455 5.10705C1.3455 5.11952 1.3455 5.13199 1.3455 5.15692C1.3455 6.89006 2.56504 8.32395 4.17878 8.66061C3.88313 8.74789 3.57517 8.78529 3.25488 8.78529C3.03315 8.78529 2.81141 8.76036 2.58967 8.72295C3.03314 10.1444 4.33891 11.1668 5.87873 11.2042C4.67151 12.1643 3.15632 12.7379 1.50563 12.7379C1.2223 12.7379 0.938984 12.7254 0.667975 12.688C2.23244 13.6979 4.08022 14.2964 6.07583 14.2964C12.5677 14.2964 16.1032 8.86011 16.1032 4.14696C16.1032 3.99734 16.1032 3.83525 16.0909 3.68562C16.7807 3.16194 17.372 2.52604 17.8524 1.81533Z"
                fill="#303030" />
        </g>
    </symbol>
    <symbol id="ok" viewBox="0 0 12 20">
        <g>
            <path
                d="M5.7887 0.0390625C2.96342 0.0390625 0.665083 2.32109 0.665083 5.1265C0.665083 7.93169 2.96342 10.2127 5.7887 10.2127C8.61387 10.2127 10.9111 7.93169 10.9111 5.1265C10.9111 2.32109 8.61389 0.0390625 5.7887 0.0390625ZM5.7887 3.01983C6.958 3.01983 7.90886 3.96533 7.90886 5.1265C7.90886 6.28718 6.95802 7.23195 5.7887 7.23195C4.61915 7.23195 3.6673 6.2872 3.6673 5.1265C3.6673 3.96533 4.61915 3.01983 5.7887 3.01983ZM1.56452 10.3858C1.0576 10.378 0.559127 10.6261 0.269962 11.0837C-0.171944 11.7808 0.0397494 12.7008 0.740153 13.1392C1.6666 13.7164 2.67191 14.1259 3.71446 14.362L0.851191 17.2066C0.26504 17.789 0.265536 18.7321 0.851806 19.3145C1.14566 19.6052 1.52891 19.7506 1.91313 19.7506C2.29696 19.7506 2.6815 19.6049 2.97446 19.3139L5.78749 16.5192L8.603 19.3139C9.18865 19.8961 10.1383 19.8961 10.725 19.3139C11.3114 18.7319 11.3114 17.7877 10.725 17.2066L7.86049 14.3626C8.90334 14.1266 9.90898 13.7168 10.8348 13.1393C11.5366 12.7008 11.7486 11.7798 11.3068 11.0837C10.8646 10.3864 9.9386 10.1764 9.23629 10.6156C7.13877 11.9258 4.43612 11.9249 2.33926 10.6156C2.09789 10.4646 1.83004 10.3899 1.56452 10.3858V10.3858Z"
                fill="#303030" />
        </g>
    </symbol>
    <symbol id="tg" viewBox="0 0 19 16">
        <g>
            <path
                d="M17.1345 0.422919L1.12886 6.77873C0.036547 7.23052 0.0428664 7.85801 0.928456 8.13783L5.03774 9.45789L14.5454 3.28057C14.995 2.99889 15.4057 3.15042 15.0681 3.45906L7.365 10.6181H7.3632L7.365 10.619L7.08154 14.9808C7.4968 14.9808 7.68006 14.7846 7.91297 14.5531L9.90893 12.5545L14.0606 15.7124C14.8262 16.1465 15.3759 15.9234 15.5664 14.9826L18.2918 1.75599C18.5707 0.604195 17.8648 0.0826783 17.1345 0.422919Z"
                fill="#303030" />
        </g>
    </symbol>
    <symbol id="wu" viewBox="0 0 21 21">
        <g>
            <path fill-rule="evenodd" clip-rule="evenodd"
                d="M10.2158 0C4.78087 0 0.358174 4.3732 0.358174 9.78175C0.358174 11.6361 0.87208 13.3514 1.77531 14.8349L0 20.0734L5.45051 18.3427C6.86764 19.1154 8.48721 19.5635 10.2158 19.5635C15.6507 19.5635 20.0734 15.1903 20.0734 9.78175C20.0734 4.3732 15.6663 0 10.2158 0Z"
                fill="#303030" />
            <path fill-rule="evenodd" clip-rule="evenodd"
                d="M14.8449 11.9457C14.5957 11.8066 13.381 11.1576 13.163 11.0649C12.9294 10.9721 12.7737 10.9258 12.5868 11.173C12.4155 11.4203 11.9016 11.9611 11.7615 12.1157C11.6057 12.2702 11.4656 12.2856 11.2164 12.162C10.9672 12.0229 10.173 11.7293 9.23865 10.8485C8.5223 10.1531 8.03954 9.31868 7.89938 9.07143C7.75923 8.80873 7.89939 8.68511 8.02397 8.56149C8.14855 8.45332 8.28871 8.28333 8.41329 8.14425C8.53788 8.00517 8.58459 7.897 8.67803 7.74247C8.77147 7.57249 8.72475 7.43343 8.67803 7.3098C8.61574 7.18618 8.16412 5.93448 7.97725 5.42453C7.79037 4.91458 7.57235 4.99185 7.4322 4.99185C7.29204 4.99185 7.12074 4.96094 6.94944 4.96094C6.77814 4.96094 6.5134 5.0073 6.26423 5.25455C6.03064 5.5018 5.34544 6.07356 5.29872 7.3098C5.252 8.53059 6.10851 9.75136 6.23309 9.92134C6.35767 10.0913 7.86824 12.7492 10.391 13.8464C12.9139 14.9436 12.9294 14.6036 13.381 14.5882C13.8482 14.5573 14.8916 14.0318 15.1252 13.4601C15.3588 12.8883 15.3744 12.3784 15.3121 12.2857C15.2498 12.1466 15.0941 12.0848 14.8449 11.9457Z"
                fill="white" />
        </g>
    </symbol>
    <symbol id="fb2" viewBox="0 0 15 28">
        <g>
            <path
                d="M9.35522 27.6855V15.4269H13.5248L14.1432 10.6491H9.35522V7.5975C9.35522 6.21993 9.74391 5.27831 11.758 5.27831H14.3199V0.988687C13.8782 0.936375 12.3587 0.796875 10.592 0.796875C6.88173 0.796875 4.35524 3.02887 4.35524 7.12668V10.6491H0.167967V15.4269H4.35524V27.6855H9.35522Z"
                fill="#303030" />
        </g>
    </symbol>
    <symbol id="vk2" viewBox="0 0 31 19">
        <g>
            <path
                d="M29.5854 2.11332C29.7943 1.43947 29.5854 0.945312 28.5978 0.945312H25.326C24.4935 0.945312 24.113 1.37281 23.9042 1.84233C23.9042 1.84233 22.2407 5.78253 19.8834 8.33736C19.1226 9.08077 18.7749 9.31553 18.3602 9.31553C18.1528 9.31553 17.8514 9.08077 17.8514 8.40692V2.11332C17.8514 1.3047 17.6112 0.945312 16.9175 0.945312H11.7763C11.2571 0.945312 10.9438 1.31919 10.9438 1.67568C10.9438 2.44082 12.1224 2.61762 12.2433 4.77393V9.45175C12.2433 10.4763 12.0538 10.6632 11.6361 10.6632C10.5276 10.6632 7.83016 6.70853 6.22932 2.18143C5.91751 1.3018 5.60271 0.946762 4.76723 0.946762H1.49693C0.561491 0.946762 0.375 1.37426 0.375 1.84378C0.375 2.68718 1.4835 6.86069 5.53856 12.3805C8.24193 16.1497 12.0478 18.1929 15.5151 18.1929C17.5933 18.1929 17.8499 17.7394 17.8499 16.9568V14.1078C17.8499 13.2007 18.0484 13.0181 18.7063 13.0181C19.1897 13.0181 20.0222 13.2557 21.9632 15.0715C24.1802 17.2249 24.5472 18.1915 25.793 18.1915H29.0633C29.9972 18.1915 30.4642 17.7379 30.1956 16.8423C29.9017 15.9511 28.8425 14.6541 27.4371 13.1195C26.6732 12.2442 25.5319 11.3023 25.1842 10.8313C24.6994 10.2241 24.8396 9.95605 25.1842 9.41697C25.1857 9.41842 29.1707 3.96676 29.5854 2.11332Z"
                fill="#303030" />
        </g>
    </symbol>
    <symbol id="twi2" viewBox="0 0 25 21">
        <g>
            <path
                d="M24.193 2.74146C23.3135 3.14295 22.3649 3.40479 21.3646 3.52698C22.3822 2.91602 23.1582 1.92102 23.5376 0.768921C22.5891 1.34497 21.5199 1.76392 20.3989 1.97339C19.5021 0.99585 18.2086 0.402343 16.7944 0.402343C14.0696 0.402343 11.8621 2.63672 11.8621 5.39478C11.8621 5.77882 11.9138 6.16285 11.9828 6.52943C7.87824 6.31996 4.23932 4.32996 1.80763 1.31006C1.37648 2.04322 1.13503 2.89856 1.13503 3.82374C1.13503 5.55189 2.01459 7.08803 3.32529 7.97829C2.51473 7.96083 1.7559 7.7339 1.08331 7.34987C1.08331 7.36732 1.08331 7.38478 1.08331 7.41969C1.08331 9.84609 2.79066 11.8535 5.0499 12.3249C4.63599 12.447 4.20484 12.4994 3.75644 12.4994C3.44601 12.4994 3.13558 12.4645 2.82515 12.4121C3.44601 14.4021 5.27408 15.8335 7.42984 15.8859C5.73973 17.23 3.61846 18.033 1.30749 18.033C0.910833 18.033 0.514187 18.0155 0.134774 17.9632C2.32502 19.3771 4.91191 20.215 7.70577 20.215C16.7944 20.215 21.7441 12.6041 21.7441 6.00575C21.7441 5.79627 21.7441 5.56934 21.7268 5.35987C22.6926 4.62672 23.5204 3.73646 24.193 2.74146Z"
                fill="#303030" />
        </g>
    </symbol>
    <symbol id="ok2" viewBox="0 0 17 29">
        <g>
            <path
                d="M8.30339 0.65625C4.34801 0.65625 1.13034 3.85109 1.13034 7.77867C1.13034 11.7059 4.34801 14.8993 8.30339 14.8993C12.2586 14.8993 15.4747 11.7059 15.4747 7.77867C15.4747 3.85109 12.2587 0.65625 8.30339 0.65625ZM8.30339 4.82932C9.94042 4.82932 11.2716 6.15303 11.2716 7.77867C11.2716 9.40361 9.94045 10.7263 8.30339 10.7263C6.66603 10.7263 5.33344 9.40364 5.33344 7.77867C5.33344 6.15303 6.66603 4.82932 8.30339 4.82932ZM2.38954 15.1417C1.67986 15.1307 0.981997 15.4781 0.577166 16.1187C-0.0415027 17.0947 0.254868 18.3826 1.23543 18.9965C2.53246 19.8046 3.9399 20.3779 5.39946 20.7083L1.39089 24.6908C0.570274 25.5061 0.570969 26.8266 1.39175 27.6419C1.80314 28.0488 2.33969 28.2525 2.8776 28.2525C3.41496 28.2525 3.95332 28.0485 4.36346 27.641L8.3017 23.7284L12.2434 27.641C13.0633 28.4561 14.3929 28.4561 15.2142 27.641C16.0352 26.8263 16.0352 25.5044 15.2142 24.6908L11.2039 20.7092C12.6639 20.3788 14.0718 19.8051 15.3679 18.9965C16.3504 18.3826 16.6473 17.0933 16.0288 16.1188C15.4096 15.1425 14.1133 14.8485 13.13 15.4634C10.1935 17.2976 6.40979 17.2964 3.47418 15.4634C3.13626 15.252 2.76128 15.1474 2.38954 15.1417V15.1417Z"
                fill="#303030" />
        </g>
    </symbol>
    <symbol id="tg2" viewBox="0 0 26 23">
        <g>
            <path
                d="M24.1887 0.393649L1.7808 9.29178C0.251556 9.92429 0.260404 10.8028 1.50023 11.1945L7.25322 13.0426L20.564 4.39436C21.1934 4.00001 21.7684 4.21215 21.2957 4.64424L10.5114 14.6668H10.5089L10.5114 14.6681L10.1146 20.7746C10.6959 20.7746 10.9525 20.5 11.2785 20.1759L14.0729 17.3778L19.8853 21.7989C20.957 22.4067 21.7267 22.0943 21.9934 20.7772L25.8089 2.25995C26.1994 0.647435 25.2111 -0.0826878 24.1887 0.393649Z"
                fill="#303030" />
        </g>
    </symbol>
    <symbol id="wu2" viewBox="0 0 29 29">
        <g>
            <path fill-rule="evenodd" clip-rule="evenodd"
                d="M14.7025 0C7.09361 0 0.901835 6.12248 0.901835 13.6944C0.901835 16.2905 1.6213 18.6919 2.88582 20.7688L0.400391 28.1028L8.0311 25.6798C10.0151 26.7615 12.2825 27.3889 14.7025 27.3889C22.3114 27.3889 28.5032 21.2664 28.5032 13.6944C28.5032 6.12248 22.3332 0 14.7025 0Z"
                fill="#303030" />
            <path fill-rule="evenodd" clip-rule="evenodd"
                d="M21.1836 16.7279C20.8348 16.5332 19.1342 15.6245 18.829 15.4947C18.502 15.3649 18.284 15.3 18.0223 15.6462C17.7825 15.9923 17.063 16.7495 16.8668 16.9659C16.6488 17.1822 16.4526 17.2038 16.1038 17.0307C15.7549 16.836 14.643 16.425 13.3349 15.1918C12.332 14.2183 11.6561 13.0501 11.4599 12.7039C11.2637 12.3361 11.4599 12.1631 11.6343 11.99C11.8088 11.8386 12.005 11.6006 12.1794 11.4059C12.3538 11.2111 12.4192 11.0597 12.55 10.8434C12.6808 10.6054 12.6154 10.4107 12.55 10.2376C12.4628 10.0646 11.8306 8.31217 11.5689 7.59824C11.3073 6.88432 11.0021 6.9925 10.8059 6.9925C10.6096 6.9925 10.3698 6.94922 10.13 6.94922C9.89017 6.94922 9.51954 7.01413 9.17071 7.36027C8.84368 7.70642 7.88439 8.5069 7.81898 10.2376C7.75358 11.9467 8.95269 13.6558 9.12711 13.8938C9.30152 14.1318 11.4163 17.8528 14.9482 19.3889C18.4802 20.9249 18.502 20.449 19.1342 20.4273C19.7883 20.3841 21.249 19.6485 21.5761 18.848C21.9031 18.0476 21.9249 17.3336 21.8377 17.2038C21.7505 17.0091 21.5325 16.9226 21.1836 16.7279Z"
                fill="white" />
        </g>
    </symbol>

    <symbol id="soc-ok" viewBox="0 0 20 20">
        <g>
            <circle cx="10" cy="10" r="10" fill="#39735D" />
            <path
                d="M15.057 5.00003L8.125 12.2388L5.70225 9.86512L4 11.6253L8.125 15.7597L16.7597 6.75977L15.057 5.00003Z"
                fill="white" />
        </g>
    </symbol>
    <symbol id="book" viewBox="0 0 20 21">
        <g>
            <path
                d="M2.88386 1.42863L2.13672 1.00381V1.86328V12.9087V13.226L2.42382 13.3611L9.37837 16.6339L10.0913 16.9694V16.1815V5.81756V5.52668L9.8384 5.38291L2.88386 1.42863Z"
                fill="white" stroke="#303030" />
            <path
                d="M17.5258 1.42863L18.2729 1.00381V1.86328V12.9087V13.226L17.9858 13.3611L11.0313 16.6339L10.3184 16.9694V16.1815V5.81756V5.52668L10.5713 5.38291L17.5258 1.42863Z"
                fill="white" stroke="#303030" />
            <path
                d="M1.15811 3.43581L0.5 3.21644V3.91016V15.9102V16.2705L0.841886 16.3845L9.0237 19.1118L9.68182 19.3311V18.6374V6.63743V6.27705L9.33993 6.16309L1.15811 3.43581Z"
                fill="white" stroke="#303030" />
            <path
                d="M18.8419 3.43581L19.5 3.21644V3.91016V15.9102V16.2705L19.1581 16.3845L10.9763 19.1118L10.3182 19.3311V18.6374V6.63743V6.27705L10.6601 6.16309L18.8419 3.43581Z"
                fill="white" stroke="#303030" />

        </g>
    </symbol>

    <symbol id="read" viewBox="0 0 16 10">
        <g>
            <path fill-rule="evenodd" clip-rule="evenodd" d="M16 1.75H0V0.25H16V1.75Z" fill="#303030" />
            <path fill-rule="evenodd" clip-rule="evenodd" d="M16 5.75H0V4.25H16V5.75Z" fill="#303030" />
            <path fill-rule="evenodd" clip-rule="evenodd" d="M11 9.75H0V8.25H11V9.75Z" fill="#303030" />

        </g>
    </symbol>
    <symbol id="more" viewBox="0 0 21 5">
        <g>
            <path
                d="M5 2.5C5 3.88071 3.88071 5 2.5 5C1.11929 5 0 3.88071 0 2.5C0 1.11929 1.11929 0 2.5 0C3.88071 0 5 1.11929 5 2.5Z"
                fill="#303030" />
            <path
                d="M13 2.5C13 3.88071 11.8807 5 10.5 5C9.11929 5 8 3.88071 8 2.5C8 1.11929 9.11929 0 10.5 0C11.8807 0 13 1.11929 13 2.5Z"
                fill="#303030" />
            <path
                d="M21 2.5C21 3.88071 19.8807 5 18.5 5C17.1193 5 16 3.88071 16 2.5C16 1.11929 17.1193 0 18.5 0C19.8807 0 21 1.11929 21 2.5Z"
                fill="#303030" />
        </g>
    </symbol>
    <symbol id="sound" viewBox="0 0 17 18">
        <g>
            <path
                d="M1.41667 4.5006H4.12817C3.18254 6.67934 3.18254 11.3226 4.12817 13.5006H1.41667C0.488042 12.6696 0 10.8373 0 9.00433C0 7.16683 0.490167 5.32934 1.41667 4.5006ZM17 9.00433C17.0035 15.0275 14.7723 18.6523 12.6643 17.9023C12.116 17.7073 5.88767 13.7181 5.88767 13.7181C4.47596 12.0531 4.47596 6.00209 5.88767 4.3371C5.88767 4.3371 12.3767 0.230117 12.6508 0.112367C14.557 -0.702129 16.9972 2.97735 17 9.00433ZM14.6037 3.2346C13.8578 1.53661 12.4773 1.56511 11.7463 3.2361C11.3298 4.18935 11.0429 5.60984 10.8892 6.83384H11.2625C12.3866 6.83384 13.2975 7.79908 13.2975 8.99008C13.2975 10.1811 12.3866 11.1463 11.2625 11.1463H10.8977C11.0514 12.3486 11.334 13.7998 11.752 14.8138C12.4518 16.517 13.9209 16.4878 14.6087 14.8123C15.9871 11.4546 15.8638 6.10559 14.6037 3.2346Z"
                fill="#303030" />
        </g>
    </symbol>
    <symbol id="fb3" viewBox="0 0 38 38">
        <g>
            <circle cx="19" cy="19" r="18" stroke="#DADCDF" fill="none" />
            <path fill-rule="evenodd" clip-rule="evenodd"
                d="M9 19.0558C9 24.0275 12.6108 28.1617 17.3333 29V21.7775H14.8333V19H17.3333V16.7775C17.3333 14.2775 18.9442 12.8892 21.2225 12.8892C21.9442 12.8892 22.7225 13 23.4442 13.1108V15.6667H22.1667C20.9442 15.6667 20.6667 16.2775 20.6667 17.0558V19H23.3333L22.8892 21.7775H20.6667V29C25.3892 28.1617 29 24.0283 29 19.0558C29 13.525 24.5 9 19 9C13.5 9 9 13.525 9 19.0558Z"
                fill="#303030" />
        </g>
    </symbol>
    <symbol id="vk3" viewBox="0 0 38 38">
        <g>
            <circle cx="19" cy="19" r="18" stroke="#DADCDF" fill="none" />
            <path
                d="M17.0396 14.0005C17.7767 13.9935 18.4977 14.0677 18.8495 14.0769C20.1533 14.111 20.3836 14.7099 20.3669 15.2025C20.3425 15.924 19.8314 18.9757 20.7785 19.2733C22.1584 18.6032 23.0838 16.5217 23.7577 15.2025C24.0986 14.5352 24.0447 14.5021 24.8303 14.5012L27.951 14.4969C28.7025 14.496 28.6732 14.4721 28.9139 14.7508C29.4739 15.3992 27.147 18.0962 26.3954 18.8419C25.0085 20.218 25.8177 20.7509 26.0411 20.94C27.0761 21.8165 28.0762 22.7253 28.6978 23.5635C29.192 24.2298 28.9879 24.8503 28.3594 24.8738L25.013 24.9993C23.9025 25.0408 22.1759 23.2329 21.9003 22.8391C21.6774 22.5142 20.6032 22.107 20.502 22.9372L20.3605 24.0959C20.2578 24.9242 19.5844 24.9049 19.0528 24.9256C15.3719 25.0695 14.1184 23.7968 12.2648 21.9183C10.9062 20.1735 9.60978 18.4186 8.53549 16.3165C8.21393 15.6872 8.04361 15.2256 8 14.7363C8.54054 14.3527 10.4379 14.5179 11.7118 14.4925C12.0603 14.4855 12.2954 14.6668 12.4793 15.0278C13.197 16.4368 13.9797 17.8204 15.0153 19.0438C15.4663 19.4211 15.865 19.5598 16.064 18.7927C16.1795 18.7831 16.1703 17.5128 16.1768 16.5546C16.1813 15.8966 16.0962 15.1076 14.8691 14.7435C15.1173 14.1527 16.0919 14.0094 17.0396 14.0005Z"
                fill="#303030" />

        </g>
    </symbol>
    <symbol id="inst3" viewBox="0 0 38 38">
        <g>
            <circle cx="19" cy="19" r="18" stroke="#DADCDF" fill="none" />
            <path
                d="M18.9976 15.9987C17.345 15.9987 15.9964 17.3474 15.9964 19C15.9964 20.6526 17.345 22.0013 18.9976 22.0013C20.6502 22.0013 21.9988 20.6526 21.9988 19C21.9988 17.3474 20.6502 15.9987 18.9976 15.9987ZM27.999 19C27.999 17.7572 28.0103 16.5256 27.9405 15.285C27.8707 13.844 27.5419 12.5652 26.4883 11.5114C25.4323 10.4555 24.1557 10.129 22.7148 10.0592C21.472 9.98941 20.2404 10.0007 18.9998 10.0007C17.757 10.0007 16.5255 9.98941 15.2849 10.0592C13.8439 10.129 12.5651 10.4577 11.5114 11.5114C10.4555 12.5674 10.129 13.844 10.0592 15.285C9.98941 16.5278 10.0007 17.7594 10.0007 19C10.0007 20.2406 9.98941 21.4744 10.0592 22.715C10.129 24.156 10.4577 25.4348 11.5114 26.4886C12.5674 27.5445 13.8439 27.871 15.2849 27.9408C16.5277 28.0106 17.7593 27.9993 18.9998 27.9993C20.2426 27.9993 21.4742 28.0106 22.7148 27.9408C24.1557 27.871 25.4346 27.5423 26.4883 26.4886C27.5442 25.4326 27.8707 24.156 27.9405 22.715C28.0125 21.4744 27.999 20.2428 27.999 19ZM18.9976 23.6179C16.4422 23.6179 14.3798 21.5555 14.3798 19C14.3798 16.4445 16.4422 14.3821 18.9976 14.3821C21.553 14.3821 23.6154 16.4445 23.6154 19C23.6154 21.5555 21.553 23.6179 18.9976 23.6179ZM23.8045 15.2715C23.2078 15.2715 22.726 14.7897 22.726 14.193C22.726 13.5963 23.2078 13.1145 23.8045 13.1145C24.4011 13.1145 24.8829 13.5963 24.8829 14.193C24.8831 14.3347 24.8554 14.475 24.8012 14.6059C24.7471 14.7369 24.6677 14.8558 24.5675 14.956C24.4673 15.0562 24.3483 15.1356 24.2174 15.1897C24.0865 15.2439 23.9462 15.2717 23.8045 15.2715Z"
                fill="#303030" />
        </g>
    </symbol>
    <symbol id="twi3" viewBox="0 0 38 38">
        <g>
            <circle cx="19" cy="19" r="18" stroke="#DADCDF" fill="none" />
            <path
                d="M29 13.6607C28.3381 13.9413 27.627 14.1309 26.8794 14.2166C27.6508 13.775 28.2278 13.08 28.503 12.2613C27.7783 12.6731 26.9851 12.963 26.158 13.1184C25.6018 12.5502 24.8651 12.1736 24.0623 12.047C23.2594 11.9205 22.4354 12.0511 21.7181 12.4185C21.0007 12.7859 20.4303 13.3697 20.0953 14.0791C19.7602 14.7885 19.6794 15.5839 19.8652 16.3418C18.3968 16.2713 16.9603 15.9061 15.649 15.27C14.3376 14.634 13.1807 13.7412 12.2533 12.6496C11.9362 13.173 11.7539 13.7797 11.7539 14.4259C11.7535 15.0077 11.9033 15.5805 12.1898 16.0936C12.4763 16.6067 12.8908 17.0442 13.3965 17.3672C12.81 17.3494 12.2366 17.1978 11.7238 16.9251V16.9706C11.7237 17.7865 12.0187 18.5773 12.5587 19.2088C13.0987 19.8403 13.8504 20.2736 14.6863 20.4352C14.1423 20.5761 13.5719 20.5968 13.0183 20.4959C13.2542 21.1979 13.7136 21.8118 14.3322 22.2516C14.9508 22.6915 15.6977 22.9352 16.4683 22.9487C15.1602 23.9312 13.5446 24.4642 11.8815 24.4618C11.5869 24.4619 11.2926 24.4455 11 24.4125C12.6881 25.451 14.6532 26.0021 16.6602 26C23.454 26 27.168 20.6165 27.168 15.9474C27.168 15.7957 27.164 15.6425 27.1569 15.4908C27.8793 14.991 28.5029 14.372 28.9984 13.6629L29 13.6607V13.6607Z"
                fill="#303030" />
        </g>
    </symbol>
    <symbol id="yt3" viewBox="0 0 38 38">
        <g>
            <circle cx="19" cy="19" r="18" stroke="#DADCDF" fill="none" />
            <path
                d="M28.6022 14.8828C28.4946 14.5194 28.285 14.1905 27.9958 13.9309C27.6984 13.6633 27.3339 13.4719 26.9367 13.3747C25.4502 13.0037 19.4945 13.0037 19.4945 13.0037C17.0116 12.977 14.5293 13.0946 12.0617 13.356C11.6645 13.4603 11.3007 13.656 11.0026 13.9256C10.7097 14.1925 10.4976 14.5215 10.3868 14.8821C10.1206 16.24 9.99122 17.6189 10.0005 19C9.99099 20.3799 10.12 21.7583 10.3868 23.1179C10.4952 23.477 10.7066 23.8045 11.0002 24.0691C11.2939 24.3337 11.6596 24.5248 12.0617 24.626C13.5681 24.9963 19.4945 24.9963 19.4945 24.9963C21.9805 25.0231 24.4659 24.9054 26.9367 24.644C27.3339 24.5468 27.6984 24.3554 27.9958 24.0878C28.2887 23.8233 28.4969 23.4942 28.6014 23.1359C28.8745 21.7785 29.0073 20.3991 28.9979 19.0172C29.0185 17.6295 28.8858 16.2436 28.6022 14.8821V14.8828ZM17.601 21.5664V16.4343L22.5562 19.0007L17.601 21.5664Z"
                fill="#303030" />

        </g>
    </symbol>
    <symbol id="menu-close" viewBox="0 0 18 18">
        <g>
            <rect x="1.22266" width="24" height="2" rx="1" transform="rotate(45 1.22266 0)" fill="#303030" />
            <rect x="18.1934" y="1.41406" width="24" height="2" rx="1" transform="rotate(135 18.1934 1.41406)"
                fill="#303030" />
        </g>
    </symbol>
    <symbol id="auth-icon1" viewBox="0 0 16 20">
        <g>
            <path
                d="M15 1.75C15.4142 1.75 15.75 1.41421 15.75 1C15.75 0.585786 15.4142 0.25 15 0.25V1.75ZM15 19V19.75C15.4142 19.75 15.75 19.4142 15.75 19H15ZM15 4.5H15.75C15.75 4.08579 15.4142 3.75 15 3.75V4.5ZM15 0.25H3V1.75H15V0.25ZM3 19.75H15V18.25H3V19.75ZM15.75 19V4.5H14.25V19H15.75ZM0.25 3V4.5H1.75V3H0.25ZM0.25 4.5V17H1.75V4.5H0.25ZM15 3.75H1V5.25H15V3.75ZM3 18.25C2.30964 18.25 1.75 17.6904 1.75 17H0.25C0.25 18.5188 1.48122 19.75 3 19.75V18.25ZM3 0.25C1.48122 0.25 0.25 1.48122 0.25 3H1.75C1.75 2.30964 2.30964 1.75 3 1.75V0.25Z"
                fill="#303030" />
        </g>
    </symbol>
    <symbol id="auth-icon2" viewBox="0 0 16 20">
        <g>
            <path d="M1 1V20L8.5 12.381L16 20V1H1Z" stroke="#303030" stroke-width="1.5" stroke-linejoin="round"
                fill="none" />
            <line x1="4.75" y1="5.25" x2="12.25" y2="5.25" stroke="#303030" stroke-width="1.5" stroke-linecap="round"
                stroke-linejoin="round" />
        </g>
    </symbol>
    <symbol id="auth-icon2" viewBox="0 0 17 21">
        <g>
            <path d="M1 1V20L8.5 12.381L16 20V1H1Z" stroke="#303030" stroke-width="1.5" stroke-linejoin="round"
                fill="none" />
            <line x1="4.75" y1="5.25" x2="12.25" y2="5.25" stroke="#303030" stroke-width="1.5" stroke-linecap="round"
                stroke-linejoin="round" />
        </g>
    </symbol>
    <symbol id="auth-icon3" viewBox="0 0 17 21">
        <g>
            <path d="M1 1V20L8.5 12.381L16 20V1H1Z" stroke="#303030" stroke-width="1.5" stroke-linejoin="round"
                fill="none" />
            <line x1="4.75" y1="5.25" x2="12.25" y2="5.25" stroke="#303030" stroke-width="1.5" stroke-linecap="round"
                stroke-linejoin="round" />
        </g>
    </symbol>
    <symbol id="visible" viewBox="0 0 24 17">
        <g>
            <path fill-rule="evenodd" clip-rule="evenodd"
                d="M21.6033 8.39712C20.7784 9.43465 19.3453 11.0591 17.5416 12.4122C15.7226 13.777 13.6712 14.7578 11.5783 14.7578C9.48539 14.7578 7.43404 13.777 5.61495 12.4122C3.8113 11.0591 2.37824 9.43465 1.55327 8.39712C1.51212 8.34537 1.5 8.29718 1.5 8.25781C1.5 8.21844 1.51212 8.17026 1.55327 8.11851C2.37824 7.08098 3.8113 5.45657 5.61495 4.10339C7.43404 2.73863 9.48539 1.75781 11.5783 1.75781C13.6712 1.75781 15.7226 2.73863 17.5416 4.10339C19.3453 5.45657 20.7784 7.08098 21.6033 8.11851C21.6445 8.17026 21.6566 8.21844 21.6566 8.25781C21.6566 8.29718 21.6445 8.34537 21.6033 8.39712ZM22.7774 7.18496C23.283 7.82079 23.283 8.69483 22.7774 9.33067C21.0433 11.5116 16.683 16.2578 11.5783 16.2578C6.47357 16.2578 2.11331 11.5116 0.379179 9.33067C-0.126393 8.69483 -0.126393 7.82079 0.379179 7.18496C2.11331 5.00402 6.47357 0.257812 11.5783 0.257812C16.683 0.257812 21.0433 5.00402 22.7774 7.18496ZM15.0783 8.25781C15.0783 10.1908 13.5113 11.7578 11.5783 11.7578C9.6453 11.7578 8.0783 10.1908 8.0783 8.25781C8.0783 6.32482 9.6453 4.75781 11.5783 4.75781C13.5113 4.75781 15.0783 6.32482 15.0783 8.25781ZM16.5783 8.25781C16.5783 11.0192 14.3397 13.2578 11.5783 13.2578C8.81687 13.2578 6.5783 11.0192 6.5783 8.25781C6.5783 5.49639 8.81687 3.25781 11.5783 3.25781C14.3397 3.25781 16.5783 5.49639 16.5783 8.25781Z"
                fill="#B9BEC1" />
        </g>
    </symbol>










</svg>