<svg display="none" xmlns="http://www.w3.org/2000/svg">
    <symbol id="menu" viewBox="0 0 24 18">
        <g>
            <rect width="24" height="2" rx="1" />
            <rect y="8" width="24" height="2" rx="1" />
            <rect y="16" width="24" height="2" rx="1" />
        </g>
    </symbol>
    <symbol id="logo" viewBox="0 0 244 52">
        <g>
            <path
                d="M46.3856 13.0508C41.5539 13.0508 37.7852 17.3354 37.7852 22.6912C37.7852 28.047 41.5056 32.3804 46.3856 32.3804C52.0387 32.3804 54.8411 27.9497 54.8411 22.6912C54.8411 17.4815 52.0387 13.0508 46.3856 13.0508Z"
                fill="#030714" />
            <path
                d="M78.3734 13.0508C72.7204 13.0508 69.918 17.4815 69.918 22.6912C69.918 27.901 72.7204 32.3804 78.3734 32.3804C83.2051 32.3804 86.9739 28.047 86.9739 22.6912C86.9739 17.3354 83.2535 13.0508 78.3734 13.0508Z"
                fill="#030714" />
            <path
                d="M150.744 13C145.96 13 141.66 16.2135 141.66 22.6404C141.66 28.97 145.912 32.3296 150.744 32.3296C155.575 32.3296 159.827 29.0674 159.827 22.6404C159.827 16.2135 155.479 13 150.744 13Z"
                fill="#030714" />
            <path
                d="M221.143 13C215.49 13 212.688 17.4307 212.688 22.6404C212.688 27.8502 215.49 32.3296 221.143 32.3296C225.975 32.3296 229.743 27.9963 229.743 22.6404C229.695 17.2846 225.975 13 221.143 13Z"
                fill="#030714" />
            <path
                d="M0 52H244V0L0 0V52ZM29.1351 13.8764H16.0896V35.6404H11.5478V9.73783H29.1835V13.8764H29.1351ZM47.1091 36.3221C42.9538 36.3221 40.0548 34.5206 38.1221 32.0375V46.2547H33.5803V9.73783H38.1221V13.3408C40.1031 10.8577 42.9538 9.10487 47.1091 9.10487C55.323 9.10487 59.6232 15.5318 59.6232 22.7378C59.6715 29.8464 55.323 36.3221 47.1091 36.3221ZM91.2225 35.6404H86.6807V32.0375C84.6997 34.5206 81.849 36.3221 77.6937 36.3221C69.4798 36.3221 65.1796 29.8464 65.1796 22.6404C65.1796 15.4831 69.5282 9.00749 77.6937 9.00749C81.849 9.00749 84.748 10.7603 86.6807 13.2434V9.73783H91.2225V35.6404ZM126.832 35.5918L123.836 19.4757L114.85 37.1498L105.766 19.7678L102.867 35.5918H98.47L104.026 7.59551L115.043 28.3858L126.011 7.59551L131.471 35.5918H126.832ZM150.749 36.3221C142.825 36.3221 136.834 30.5768 136.834 22.6891C136.834 14.8015 142.777 9.00749 150.749 9.00749C158.673 9.00749 164.664 14.8015 164.664 22.6891C164.664 30.5281 158.673 36.3221 150.749 36.3221ZM200.902 35.5918H196.36V13.7303H188.533V35.5918H183.991V13.7303H176.164V35.5918H171.622V9.68914H200.854V35.5918H200.902ZM233.951 35.5918H229.409V31.9888C227.428 34.4719 224.577 36.2734 220.422 36.2734C212.208 36.2734 207.908 29.7978 207.908 22.6404C207.908 15.4831 212.257 8.9588 220.422 8.9588C224.577 8.9588 227.476 10.7603 229.409 13.2434V9.64045H233.951V35.5918Z"
                fill="#030714" />
        </g>
    </symbol>
    <symbol id="search" viewBox="0 0 22 22">
        <g>
            <circle cx="10.5" cy="9.5" r="7.5" stroke="#303030" fill="#fff" stroke-width="2" />
            <line x1="18.4039" y1="16.8293" x2="20.8293" y2="18.7289" stroke="#303030" stroke-width="2"
                stroke-linecap="round" stroke-linejoin="round" />
        </g>
    </symbol>
    <symbol id="profile" viewBox="0 0 22 22">
        <g>
            <circle cx="10.5" cy="6.5" r="4.5" stroke="#303030" fill="#fff" stroke-width="2" />
            <path
                d="M20 20V17.4881C20 15.5617 18.4383 14 16.5119 14V14C16.1725 14 15.8348 14.0496 15.5097 14.1471L12.6454 15.0064C11.5701 15.329 10.4258 15.3434 9.34265 15.048L5.89879 14.1088C5.63411 14.0366 5.36099 14 5.08664 14V14C3.38194 14 2 15.3819 2 17.0866V20"
                stroke="#303030" stroke-width="2" stroke-linecap="round" fill="#fff" stroke-linejoin="round" />

        </g>
    </symbol>
    <symbol id="my" viewBox="0 0 24 24">
        <g>
            <circle cx="12.4291" cy="12.4291" r="10.7143" fill="white" />
            <path
                d="M0 12.0152C0 18.6548 5.34518 24 11.9848 24C18.6244 24 24 18.6548 24 12.0152C24 5.37564 18.6244 0 11.9848 0C5.34518 0 0 5.37564 0 12.0152ZM12.2132 13.4924C11.7716 14.0863 11.6193 14.7259 11.6193 15.2893C11.6193 15.8832 11.8477 16.3553 12.2132 16.3553C12.5482 16.3553 12.8832 16.0203 12.8832 15.2893C12.8832 14.7259 12.6091 14.1472 12.2132 13.4924ZM5.04061 17.6497C5.04061 17.6497 6.97462 9.36548 7.4467 7.56853C7.05076 7.2335 6.51777 6.86802 6.1066 6.86802C5.63452 6.86802 5.37563 7.14213 5.37563 7.53807C5.37563 8.01015 5.71066 8.17766 6.01523 8.17766C6.28934 8.17766 6.38071 8.11675 6.54822 8.07107L6.48731 8.34518C6.35025 8.77157 5.92386 9.2132 5.34518 9.2132C4.17259 9.2132 3.67005 8.23858 3.67005 7.3401C3.67005 6.24366 4.50761 5.17766 6.24365 5.17766C8.31472 5.17766 10.3096 7.91878 11.0102 8.81726C11.2081 9.04569 11.9848 9.98985 12.2437 10.3553C15.0457 6.35025 17.4213 5.42132 19.5533 4.94924L19.3858 7.00508C19.1117 7.06599 17.9543 7.37056 17.3909 7.84264L19.3249 17.6497H17.2538L15.6853 9.1066C14.8173 9.70051 13.6751 10.9797 13.1878 11.9086C14.0558 13.1117 14.3909 14.3147 14.3909 15.3807C14.3909 17.4213 12.9898 17.9848 12.2284 17.9848C10.8883 17.9848 10.0203 16.8883 10.0203 15.3807C10.0203 13.8426 10.7817 12.4721 11.0254 12.0152C10.6599 11.3756 9.98985 10.1421 8.86294 9.07614L6.98985 17.6497H5.04061Z"
                fill="#020203" />
        </g>
    </symbol>
    <symbol id="time" viewBox="0 0 14 14">
        <g>
            <path
                d="M6.93048 0.230469C3.35241 0.230469 0.441406 3.14637 0.441406 6.73047C0.441406 10.3146 3.35241 13.2305 6.93048 13.2305C10.5086 13.2305 13.4196 10.3146 13.4196 6.73047C13.4196 3.14637 10.5086 0.230469 6.93048 0.230469ZM6.93048 11.9305C4.06815 11.9305 1.73922 9.59762 1.73922 6.73047C1.73922 3.86332 4.06815 1.53047 6.93048 1.53047C9.79281 1.53047 12.1217 3.86332 12.1217 6.73047C12.1217 9.59762 9.79281 11.9305 6.93048 11.9305Z"
                fill="#7C858F" />
            <path d="M7.57906 3.48047H6.28125V6.99957L8.4181 9.14002L9.33566 8.22092L7.57906 6.46137V3.48047Z"
                fill="#7C858F" />
        </g>
    </symbol>
    <symbol id="arrow-up" viewBox="0 0 14 14">
        <g>
            <path d="M7 0L13.0622 10.5H0.937822L7 0Z" />
        </g>
    </symbol>
    <symbol id="arrow-down" viewBox="0 0 14 14">
        <path d="M7 11L0.937823 0.499999L13.0622 0.5L7 11Z" />
    </symbol>
    <symbol id="snail" viewBox="0 0 49 42">
        <path fill-rule="evenodd" clip-rule="evenodd"
            d="M40.7992 6.90618C40.7992 6.90618 44.7316 6.41407 47.1894 6.1875C44.7316 15.7535 38.3415 41.315 38.3415 41.315C25.5612 41.315 0 41.315 0 41.315V37.5568L20.1541 33.9409C28.0189 40.331 37.3288 29.151 33.426 21.6521C33.5291 20.5236 34.4085 20.669 34.4085 20.669L40.7992 6.90618Z"
            fill="#303030" />
        <path d="M40.3086 2.34555L42.102 7.78582H45.8545L48.0006 1.00781" stroke="#303030" stroke-width="1.9662" />
        <path fill-rule="evenodd" clip-rule="evenodd"
            d="M29.0549 40.1493C36.0964 36.9453 38.1557 28.4236 36.6044 21.4339C35.0023 14.2154 29.3477 7.35437 19.6629 7.35547C16.2076 7.35586 11.7164 8.31344 8.01973 11.0383C4.20769 13.8482 1.43359 18.407 1.43359 25.0925C1.43359 29.7892 2.94055 33.4672 5.45966 35.9796C7.95528 38.4686 11.2453 39.6129 14.4538 39.6289C20.7886 39.6605 27.499 35.1701 27.499 27C27.499 21.6855 23.3567 18.3718 19.1442 17.9417C17.0073 17.7235 14.7334 18.214 12.8139 19.5976C12.2513 20.0031 11.7335 20.4749 11.2671 21.0103L14.5666 24.9396C14.9179 24.3661 15.3257 23.9506 15.7376 23.6537C16.5697 23.054 17.596 22.8096 18.6363 22.9159C20.7783 23.1345 22.499 24.7065 22.499 27C22.499 31.8044 18.6767 34.6499 14.4788 34.629C12.4209 34.6187 10.4446 33.8896 8.99047 32.4393C7.55982 31.0125 6.43359 28.6854 6.43359 25.0925C6.43359 19.9818 8.46389 16.9225 10.9864 15.0631C13.6244 13.1186 16.9979 12.3558 19.6635 12.3555C26.4383 12.3547 30.4953 16.9851 31.7231 22.5173C33.0018 28.2784 31.0094 33.7667 26.9841 35.5983C25.7274 36.1701 25.1722 37.6525 25.744 38.9092C26.3158 40.1659 27.7982 40.7211 29.0549 40.1493Z"
            fill="#303030" />
    </symbol>
    <symbol id="arrow-right" viewBox="0 0 16 14">
        <g>
            <path fill-rule="evenodd" clip-rule="evenodd"
                d="M8.85278 13.5953C8.54991 13.3127 8.53345 12.8381 8.81601 12.5352L13.2746 7.75622L1 7.75622C0.585788 7.75622 0.250002 7.42044 0.250002 7.00622C0.250002 6.59201 0.585788 6.25622 1 6.25622L13.2746 6.25622L8.81601 1.4772C8.53345 1.17433 8.54991 0.699739 8.85278 0.417176C9.15565 0.134613 9.63024 0.151077 9.91281 0.453948L15.5484 6.4946C15.8172 6.78272 15.8172 7.22972 15.5484 7.51785L9.9128 13.5585C9.63024 13.8614 9.15565 13.8778 8.85278 13.5953Z"
                fill="#303030" />
        </g>
    </symbol>
    <symbol id="arrow-down2" viewBox="0 0 13 18">
        <g>
            <path fill-rule="evenodd" clip-rule="evenodd"
                d="M0.44505 12.4955C0.72368 12.189 1.19802 12.1664 1.50451 12.4451L6.50001 16.9864L11.4955 12.4451C11.802 12.1664 12.2763 12.189 12.555 12.4955C12.8336 12.802 12.811 13.2763 12.5045 13.555L7.00451 18.555C6.71844 18.815 6.28157 18.815 5.9955 18.555L0.495501 13.555C0.189008 13.2763 0.16642 12.802 0.44505 12.4955Z"
                fill="#303030" />
            <path fill-rule="evenodd" clip-rule="evenodd"
                d="M6.5 0.25C6.91421 0.25 7.25 0.585786 7.25 1L7.25 17C7.25 17.4142 6.91421 17.75 6.5 17.75C6.08579 17.75 5.75 17.4142 5.75 17L5.75 1C5.75 0.585786 6.08579 0.25 6.5 0.25Z"
                fill="#303030" />
        </g>
    </symbol>
    <symbol id="arrow-down2" viewBox="0 0 13 18">
        <g>
            <path fill-rule="evenodd" clip-rule="evenodd"
                d="M0.44505 12.4955C0.72368 12.189 1.19802 12.1664 1.50451 12.4451L6.50001 16.9864L11.4955 12.4451C11.802 12.1664 12.2763 12.189 12.555 12.4955C12.8336 12.802 12.811 13.2763 12.5045 13.555L7.00451 18.555C6.71844 18.815 6.28157 18.815 5.9955 18.555L0.495501 13.555C0.189008 13.2763 0.16642 12.802 0.44505 12.4955Z"
                fill="#303030" />
            <path fill-rule="evenodd" clip-rule="evenodd"
                d="M6.5 0.25C6.91421 0.25 7.25 0.585786 7.25 1L7.25 17C7.25 17.4142 6.91421 17.75 6.5 17.75C6.08579 17.75 5.75 17.4142 5.75 17L5.75 1C5.75 0.585786 6.08579 0.25 6.5 0.25Z"
                fill="#303030" />
        </g>
    </symbol>
    <symbol id="settings" viewBox="0 0 32 26">
        <g>
            <rect x="4.5" y="6.5" width="23" height="1.00001" rx="0.500004" fill="white" stroke="#303030"
                stroke-width="1.00001" />
            <circle cx="19" cy="7" r="3" fill="white" stroke="#303030" stroke-width="2" />
            <rect x="4.5" y="18.5" width="23" height="1" rx="0.5" fill="white" stroke="#303030" />
            <path
                d="M16 19C16 20.6569 14.6569 22 13 22C11.3431 22 10 20.6569 10 19C10 17.3431 11.3431 16 13 16C14.6569 16 16 17.3431 16 19Z"
                fill="white" stroke="#303030" stroke-width="2" />
        </g>
    </symbol>
    <symbol id="favourites" viewBox="0 0 15 19">
        <g>
            <path
                d="M2 1.25H1.25V2V16V17.4984L2.44949 16.6004L7.5 12.8193L12.5505 16.6004L13.75 17.4984V16V2V1.25H13H2Z"
                stroke="#303030" fill="none" stroke-width="1.5" />
        </g>
    </symbol>
    <symbol id="fb" viewBox="0 0 11 21">
        <g>
            <path
                d="M6.96857 20.0616V11.3055H9.94686L10.3886 7.89274H6.96857V5.71305C6.96857 4.72908 7.24621 4.05649 8.68487 4.05649H10.5148V0.992477C10.1993 0.955111 9.11395 0.855469 7.85196 0.855469C5.20179 0.855469 3.39715 2.44975 3.39715 5.37676V7.89274H0.406248V11.3055H3.39715V20.0616H6.96857Z"
                fill="#303030" />
        </g>
    </symbol>
    <symbol id="vk" viewBox="0 0 22 14">
        <g>
            <path
                d="M21.2748 1.79523C21.4239 1.31391 21.2747 0.960938 20.5693 0.960938H18.2323C17.6376 0.960938 17.3659 1.26629 17.2167 1.60166C17.2167 1.60166 16.0285 4.41609 14.3448 6.24097C13.8013 6.77198 13.553 6.93966 13.2567 6.93966C13.1086 6.93966 12.8933 6.77198 12.8933 6.29066V1.79523C12.8933 1.21764 12.7217 0.960938 12.2262 0.960938H8.55394C8.18309 0.960938 7.9593 1.22799 7.9593 1.48263C7.9593 2.02916 8.80118 2.15544 8.8875 3.69567V7.03696C8.8875 7.76877 8.75216 7.9023 8.45377 7.9023C7.66199 7.9023 5.73527 5.07752 4.59181 1.84388C4.36909 1.21557 4.14424 0.961973 3.54746 0.961973H1.21153C0.543364 0.961973 0.410156 1.26733 0.410156 1.6027C0.410156 2.20513 1.20194 5.18621 4.09841 9.12889C6.02939 11.8212 8.7479 13.2807 11.2245 13.2807C12.709 13.2807 12.8923 12.9567 12.8923 12.3977V10.3627C12.8923 9.71476 13.034 9.58434 13.5039 9.58434C13.8492 9.58434 14.4439 9.75409 15.8303 11.0511C17.4139 12.5892 17.676 13.2796 18.5658 13.2796H20.9018C21.5689 13.2796 21.9024 12.9556 21.7106 12.316C21.5007 11.6794 20.7441 10.753 19.7402 9.65679C19.1946 9.03159 18.3793 8.35878 18.131 8.02237C17.7847 7.58867 17.8849 7.39718 18.131 7.01212C18.1321 7.01315 20.9785 3.11912 21.2748 1.79523Z"
                fill="#303030" />
        </g>
    </symbol>
    <symbol id="twi" viewBox="0 0 18 15">
        <g>
            <path
                d="M17.8524 1.81533C17.2242 2.10211 16.5466 2.28914 15.8322 2.37642C16.559 1.94001 17.1133 1.2293 17.3843 0.406372C16.7068 0.817837 15.943 1.11708 15.1423 1.26671C14.5018 0.568465 13.5779 0.144531 12.5677 0.144531C10.6214 0.144531 9.04462 1.74052 9.04462 3.71056C9.04462 3.98487 9.08157 4.25918 9.13085 4.52102C6.19902 4.3714 3.5998 2.94997 1.86287 0.792901C1.55491 1.31658 1.38244 1.92755 1.38244 2.58838C1.38244 3.82278 2.0107 4.92002 2.94692 5.55592C2.36794 5.54345 1.82592 5.38136 1.3455 5.10705C1.3455 5.11952 1.3455 5.13199 1.3455 5.15692C1.3455 6.89006 2.56504 8.32395 4.17878 8.66061C3.88313 8.74789 3.57517 8.78529 3.25488 8.78529C3.03315 8.78529 2.81141 8.76036 2.58967 8.72295C3.03314 10.1444 4.33891 11.1668 5.87873 11.2042C4.67151 12.1643 3.15632 12.7379 1.50563 12.7379C1.2223 12.7379 0.938984 12.7254 0.667975 12.688C2.23244 13.6979 4.08022 14.2964 6.07583 14.2964C12.5677 14.2964 16.1032 8.86011 16.1032 4.14696C16.1032 3.99734 16.1032 3.83525 16.0909 3.68562C16.7807 3.16194 17.372 2.52604 17.8524 1.81533Z"
                fill="#303030" />
        </g>
    </symbol>
    <symbol id="ok" viewBox="0 0 12 20">
        <g>
            <path
                d="M5.7887 0.0390625C2.96342 0.0390625 0.665083 2.32109 0.665083 5.1265C0.665083 7.93169 2.96342 10.2127 5.7887 10.2127C8.61387 10.2127 10.9111 7.93169 10.9111 5.1265C10.9111 2.32109 8.61389 0.0390625 5.7887 0.0390625ZM5.7887 3.01983C6.958 3.01983 7.90886 3.96533 7.90886 5.1265C7.90886 6.28718 6.95802 7.23195 5.7887 7.23195C4.61915 7.23195 3.6673 6.2872 3.6673 5.1265C3.6673 3.96533 4.61915 3.01983 5.7887 3.01983ZM1.56452 10.3858C1.0576 10.378 0.559127 10.6261 0.269962 11.0837C-0.171944 11.7808 0.0397494 12.7008 0.740153 13.1392C1.6666 13.7164 2.67191 14.1259 3.71446 14.362L0.851191 17.2066C0.26504 17.789 0.265536 18.7321 0.851806 19.3145C1.14566 19.6052 1.52891 19.7506 1.91313 19.7506C2.29696 19.7506 2.6815 19.6049 2.97446 19.3139L5.78749 16.5192L8.603 19.3139C9.18865 19.8961 10.1383 19.8961 10.725 19.3139C11.3114 18.7319 11.3114 17.7877 10.725 17.2066L7.86049 14.3626C8.90334 14.1266 9.90898 13.7168 10.8348 13.1393C11.5366 12.7008 11.7486 11.7798 11.3068 11.0837C10.8646 10.3864 9.9386 10.1764 9.23629 10.6156C7.13877 11.9258 4.43612 11.9249 2.33926 10.6156C2.09789 10.4646 1.83004 10.3899 1.56452 10.3858V10.3858Z"
                fill="#303030" />
        </g>
    </symbol>
    <symbol id="tg" viewBox="0 0 19 16">
        <g>
            <path
                d="M17.1345 0.422919L1.12886 6.77873C0.036547 7.23052 0.0428664 7.85801 0.928456 8.13783L5.03774 9.45789L14.5454 3.28057C14.995 2.99889 15.4057 3.15042 15.0681 3.45906L7.365 10.6181H7.3632L7.365 10.619L7.08154 14.9808C7.4968 14.9808 7.68006 14.7846 7.91297 14.5531L9.90893 12.5545L14.0606 15.7124C14.8262 16.1465 15.3759 15.9234 15.5664 14.9826L18.2918 1.75599C18.5707 0.604195 17.8648 0.0826783 17.1345 0.422919Z"
                fill="#303030" />
        </g>
    </symbol>
    <symbol id="wu" viewBox="0 0 21 21">
        <g>
            <path fill-rule="evenodd" clip-rule="evenodd"
                d="M10.2158 0C4.78087 0 0.358174 4.3732 0.358174 9.78175C0.358174 11.6361 0.87208 13.3514 1.77531 14.8349L0 20.0734L5.45051 18.3427C6.86764 19.1154 8.48721 19.5635 10.2158 19.5635C15.6507 19.5635 20.0734 15.1903 20.0734 9.78175C20.0734 4.3732 15.6663 0 10.2158 0Z"
                fill="#303030" />
            <path fill-rule="evenodd" clip-rule="evenodd"
                d="M14.8449 11.9457C14.5957 11.8066 13.381 11.1576 13.163 11.0649C12.9294 10.9721 12.7737 10.9258 12.5868 11.173C12.4155 11.4203 11.9016 11.9611 11.7615 12.1157C11.6057 12.2702 11.4656 12.2856 11.2164 12.162C10.9672 12.0229 10.173 11.7293 9.23865 10.8485C8.5223 10.1531 8.03954 9.31868 7.89938 9.07143C7.75923 8.80873 7.89939 8.68511 8.02397 8.56149C8.14855 8.45332 8.28871 8.28333 8.41329 8.14425C8.53788 8.00517 8.58459 7.897 8.67803 7.74247C8.77147 7.57249 8.72475 7.43343 8.67803 7.3098C8.61574 7.18618 8.16412 5.93448 7.97725 5.42453C7.79037 4.91458 7.57235 4.99185 7.4322 4.99185C7.29204 4.99185 7.12074 4.96094 6.94944 4.96094C6.77814 4.96094 6.5134 5.0073 6.26423 5.25455C6.03064 5.5018 5.34544 6.07356 5.29872 7.3098C5.252 8.53059 6.10851 9.75136 6.23309 9.92134C6.35767 10.0913 7.86824 12.7492 10.391 13.8464C12.9139 14.9436 12.9294 14.6036 13.381 14.5882C13.8482 14.5573 14.8916 14.0318 15.1252 13.4601C15.3588 12.8883 15.3744 12.3784 15.3121 12.2857C15.2498 12.1466 15.0941 12.0848 14.8449 11.9457Z"
                fill="white" />
        </g>
    </symbol>
</svg>